<svg id="visual" viewBox="0 0 960 540" width="960" height="540" xmlns="http://www.w3.org/2000/svg" xmlns:xlink="http://www.w3.org/1999/xlink" version="1.1"><path d="M0 335L22.8 341.7C45.7 348.3 91.3 361.7 137 372.3C182.7 383 228.3 391 274 384.5C319.7 378 365.3 357 411.2 345.7C457 334.3 503 332.7 548.8 335.8C594.7 339 640.3 347 686 352.7C731.7 358.3 777.3 361.7 823 367.5C868.7 373.3 914.3 381.7 937.2 385.8L960 390L960 541L937.2 541C914.3 541 868.7 541 823 541C777.3 541 731.7 541 686 541C640.3 541 594.7 541 548.8 541C503 541 457 541 411.2 541C365.3 541 319.7 541 274 541C228.3 541 182.7 541 137 541C91.3 541 45.7 541 22.8 541L0 541Z" fill="#ffffff"></path><path d="M0 402L22.8 405C45.7 408 91.3 414 137 415.8C182.7 417.7 228.3 415.3 274 412.8C319.7 410.3 365.3 407.7 411.2 407.2C457 406.7 503 408.3 548.8 411.5C594.7 414.7 640.3 419.3 686 416.3C731.7 413.3 777.3 402.7 823 392.8C868.7 383 914.3 374 937.2 369.5L960 365L960 541L937.2 541C914.3 541 868.7 541 823 541C777.3 541 731.7 541 686 541C640.3 541 594.7 541 548.8 541C503 541 457 541 411.2 541C365.3 541 319.7 541 274 541C228.3 541 182.7 541 137 541C91.3 541 45.7 541 22.8 541L0 541Z" fill="#cbe5da"></path><path d="M0 411L22.8 415.2C45.7 419.3 91.3 427.7 137 434.8C182.7 442 228.3 448 274 448.8C319.7 449.7 365.3 445.3 411.2 446C457 446.7 503 452.3 548.8 453.5C594.7 454.7 640.3 451.3 686 446.5C731.7 441.7 777.3 435.3 823 435.7C868.7 436 914.3 443 937.2 446.5L960 450L960 541L937.2 541C914.3 541 868.7 541 823 541C777.3 541 731.7 541 686 541C640.3 541 594.7 541 548.8 541C503 541 457 541 411.2 541C365.3 541 319.7 541 274 541C228.3 541 182.7 541 137 541C91.3 541 45.7 541 22.8 541L0 541Z" fill="#96cab7"></path><path d="M0 485L22.8 479.8C45.7 474.7 91.3 464.3 137 461.3C182.7 458.3 228.3 462.7 274 464.8C319.7 467 365.3 467 411.2 466C457 465 503 463 548.8 462C594.7 461 640.3 461 686 463.5C731.7 466 777.3 471 823 473.3C868.7 475.7 914.3 475.3 937.2 475.2L960 475L960 541L937.2 541C914.3 541 868.7 541 823 541C777.3 541 731.7 541 686 541C640.3 541 594.7 541 548.8 541C503 541 457 541 411.2 541C365.3 541 319.7 541 274 541C228.3 541 182.7 541 137 541C91.3 541 45.7 541 22.8 541L0 541Z" fill="#5eaf94"></path><path d="M0 505L22.8 502.3C45.7 499.7 91.3 494.3 137 490.8C182.7 487.3 228.3 485.7 274 485.8C319.7 486 365.3 488 411.2 492.2C457 496.3 503 502.7 548.8 503.2C594.7 503.7 640.3 498.3 686 493.5C731.7 488.7 777.3 484.3 823 486.8C868.7 489.3 914.3 498.7 937.2 503.3L960 508L960 541L937.2 541C914.3 541 868.7 541 823 541C777.3 541 731.7 541 686 541C640.3 541 594.7 541 548.8 541C503 541 457 541 411.2 541C365.3 541 319.7 541 274 541C228.3 541 182.7 541 137 541C91.3 541 45.7 541 22.8 541L0 541Z" fill="#009473"></path></svg>