<svg id="visual" viewBox="0 0 960 300" width="960" height="300" xmlns="http://www.w3.org/2000/svg" xmlns:xlink="http://www.w3.org/1999/xlink" version="1.1"><path d="M0 186L22.8 189.7C45.7 193.3 91.3 200.7 137 206.5C182.7 212.3 228.3 216.7 274 213C319.7 209.3 365.3 197.7 411.2 191.3C457 185 503 184 548.8 185.8C594.7 187.7 640.3 192.3 686 195.7C731.7 199 777.3 201 823 204.2C868.7 207.3 914.3 211.7 937.2 213.8L960 216L960 301L937.2 301C914.3 301 868.7 301 823 301C777.3 301 731.7 301 686 301C640.3 301 594.7 301 548.8 301C503 301 457 301 411.2 301C365.3 301 319.7 301 274 301C228.3 301 182.7 301 137 301C91.3 301 45.7 301 22.8 301L0 301Z" fill="#ffffff"></path><path d="M0 223L22.8 224.7C45.7 226.3 91.3 229.7 137 230.7C182.7 231.7 228.3 230.3 274 229C319.7 227.7 365.3 226.3 411.2 226C457 225.7 503 226.3 548.8 228C594.7 229.7 640.3 232.3 686 230.7C731.7 229 777.3 223 823 217.7C868.7 212.3 914.3 207.7 937.2 205.3L960 203L960 301L937.2 301C914.3 301 868.7 301 823 301C777.3 301 731.7 301 686 301C640.3 301 594.7 301 548.8 301C503 301 457 301 411.2 301C365.3 301 319.7 301 274 301C228.3 301 182.7 301 137 301C91.3 301 45.7 301 22.8 301L0 301Z" fill="#cbe5da"></path><path d="M0 228L22.8 230.3C45.7 232.7 91.3 237.3 137 241.3C182.7 245.3 228.3 248.7 274 249C319.7 249.3 365.3 246.7 411.2 247C457 247.3 503 250.7 548.8 251.5C594.7 252.3 640.3 250.7 686 248C731.7 245.3 777.3 241.7 823 241.8C868.7 242 914.3 246 937.2 248L960 250L960 301L937.2 301C914.3 301 868.7 301 823 301C777.3 301 731.7 301 686 301C640.3 301 594.7 301 548.8 301C503 301 457 301 411.2 301C365.3 301 319.7 301 274 301C228.3 301 182.7 301 137 301C91.3 301 45.7 301 22.8 301L0 301Z" fill="#96cab7"></path><path d="M0 269L22.8 266.2C45.7 263.3 91.3 257.7 137 256C182.7 254.3 228.3 256.7 274 257.8C319.7 259 365.3 259 411.2 258.5C457 258 503 257 548.8 256.5C594.7 256 640.3 256 686 257.3C731.7 258.7 777.3 261.3 823 262.7C868.7 264 914.3 264 937.2 264L960 264L960 301L937.2 301C914.3 301 868.7 301 823 301C777.3 301 731.7 301 686 301C640.3 301 594.7 301 548.8 301C503 301 457 301 411.2 301C365.3 301 319.7 301 274 301C228.3 301 182.7 301 137 301C91.3 301 45.7 301 22.8 301L0 301Z" fill="#5eaf94"></path><path d="M0 280L22.8 278.5C45.7 277 91.3 274 137 272C182.7 270 228.3 269 274 269.2C319.7 269.3 365.3 270.7 411.2 273C457 275.3 503 278.7 548.8 278.8C594.7 279 640.3 276 686 273.3C731.7 270.7 777.3 268.3 823 269.8C868.7 271.3 914.3 276.7 937.2 279.3L960 282L960 301L937.2 301C914.3 301 868.7 301 823 301C777.3 301 731.7 301 686 301C640.3 301 594.7 301 548.8 301C503 301 457 301 411.2 301C365.3 301 319.7 301 274 301C228.3 301 182.7 301 137 301C91.3 301 45.7 301 22.8 301L0 301Z" fill="#009473"></path></svg>